<svg width="24" height="24" viewBox="0 0 24 24" fill="none" xmlns="http://www.w3.org/2000/svg">
<path d="M3 1H4.36039C5.14527 1 5.53771 1 5.81419 1.22666C6.09066 1.45332 6.16763 1.83813 6.32155 2.60777L7 6" stroke="#222222" stroke-width="1.5" stroke-linecap="round"/>
<path d="M19 19H8.91349C8.3672 19 8.09406 19 7.89792 18.9115C7.59108 18.773 7.37451 18.4895 7.32165 18.157C7.28787 17.9445 7.35974 17.681 7.50347 17.1539V17.1539C7.68035 16.5054 7.76878 16.1811 7.93178 15.9253C8.18604 15.5262 8.57357 15.2302 9.02548 15.0899C9.31517 15 9.65128 15 10.3235 15H15.7273" stroke="#222222" stroke-width="1.5" stroke-linecap="round" stroke-linejoin="round"/>
<path d="M15.2029 15H12.0231C10.6589 15 9.97685 15 9.4583 14.634C8.93975 14.268 8.71124 13.6254 8.25424 12.34L7.42401 10.005C6.77574 8.18176 6.4516 7.27013 6.89981 6.63506C7.34802 6 8.31557 6 10.2507 6H17.2577C19.3892 6 20.4549 6 20.8965 6.69808C21.3381 7.39616 20.8816 8.35914 19.9685 10.2851L18.8173 12.7135C18.2905 13.8248 18.0271 14.3804 17.5373 14.6902C17.0476 15 16.4327 15 15.2029 15Z" stroke="#222222" stroke-width="1.5" stroke-linecap="round"/>
<circle cx="17" cy="21" r="1" fill="#222222"/>
<circle cx="9" cy="21" r="1" fill="#222222"/>
<path d="M16 8L11 13" stroke="#222222" stroke-linecap="round"/>
<path d="M11 8L16 13" stroke="#222222" stroke-linecap="round"/>
</svg>
