<svg width="170" height="170" viewBox="0 0 170 170" fill="none" xmlns="http://www.w3.org/2000/svg">
<path fill-rule="evenodd" clip-rule="evenodd" d="M137.556 21.1937C137.556 18.5746 139.679 16.4514 142.298 16.4514C144.917 16.4514 147.04 18.5746 147.04 21.1937V30.9494C147.04 33.5684 144.917 35.6916 142.298 35.6916C139.679 35.6916 137.556 33.5684 137.556 30.9494V21.1937ZM142.298 20.0514C141.667 20.0514 141.156 20.5628 141.156 21.1937V30.9494C141.156 31.5802 141.667 32.0916 142.298 32.0916C142.929 32.0916 143.44 31.5802 143.44 30.9494V21.1937C143.44 20.5628 142.929 20.0514 142.298 20.0514ZM36 52.2C36 43.253 43.253 36 52.2 36H127.8C136.747 36 144 43.253 144 52.2V112.18C155.323 114.652 163.8 124.736 163.8 136.8C163.8 150.718 152.518 162 138.6 162C127.184 162 117.542 154.409 114.444 144H52.2C43.253 144 36 136.747 36 127.8V52.2ZM113.655 140.4C113.487 139.224 113.4 138.022 113.4 136.8C113.4 129.749 116.296 123.374 120.964 118.8H57.6C51.6353 118.8 46.8 113.965 46.8 108V57.6C46.8 51.6354 51.6353 46.8 57.6 46.8H122.4C128.365 46.8 133.2 51.6354 133.2 57.6V108C133.2 109.568 132.866 111.058 132.265 112.403C134.289 111.879 136.412 111.6 138.6 111.6C139.205 111.6 139.805 111.621 140.4 111.663V52.2C140.4 45.2413 134.759 39.6 127.8 39.6H52.2C45.2412 39.6 39.6 45.2413 39.6 52.2V127.8C39.6 134.759 45.2412 140.4 52.2 140.4H113.655ZM57.6 50.4C53.6235 50.4 50.4 53.6236 50.4 57.6V97.8919L64.2438 83.6044C68.4873 79.2249 75.5127 79.2249 79.7562 83.6044L92.0532 96.2955C93.9609 98.2644 97.0412 98.4913 99.2169 96.8233L106.829 90.9874C110.706 88.0153 116.094 88.0153 119.971 90.9874L129.6 98.3696V57.6C129.6 53.6236 126.376 50.4 122.4 50.4H57.6ZM109.23 76.7333C109.23 80.8754 105.882 84.2332 101.751 84.2332C97.6201 84.2332 94.2715 80.8754 94.2715 76.7333C94.2715 72.5911 97.6201 69.2333 101.751 69.2333C105.882 69.2333 109.23 72.5911 109.23 76.7333ZM147.876 40.7423C147.876 38.1232 149.999 36 152.618 36H162.374C164.993 36 167.116 38.1232 167.116 40.7423C167.116 43.3614 164.993 45.4846 162.374 45.4846H152.618C149.999 45.4846 147.876 43.3614 147.876 40.7423ZM152.618 39.6C151.987 39.6 151.476 40.1115 151.476 40.7423C151.476 41.3732 151.987 41.8846 152.618 41.8846H162.374C163.005 41.8846 163.516 41.3732 163.516 40.7423C163.516 40.1115 163.005 39.6 162.374 39.6H152.618ZM117 136.8C117 124.871 126.671 115.2 138.6 115.2C150.529 115.2 160.2 124.871 160.2 136.8C160.2 148.729 150.529 158.4 138.6 158.4C126.671 158.4 117 148.729 117 136.8ZM134.1 125.1C134.1 122.615 136.115 120.6 138.6 120.6C141.085 120.6 143.1 122.615 143.1 125.1V135.9C143.1 138.385 141.085 140.4 138.6 140.4C136.115 140.4 134.1 138.385 134.1 135.9V125.1ZM138.6 124.2C138.103 124.2 137.7 124.603 137.7 125.1V135.9C137.7 136.397 138.103 136.8 138.6 136.8C139.097 136.8 139.5 136.397 139.5 135.9V125.1C139.5 124.603 139.097 124.2 138.6 124.2ZM138.6 153C136.115 153 134.1 150.985 134.1 148.5C134.1 146.015 136.115 144 138.6 144C141.085 144 143.1 146.015 143.1 148.5C143.1 150.985 141.085 153 138.6 153ZM137.7 148.5C137.7 148.997 138.103 149.4 138.6 149.4C139.097 149.4 139.5 148.997 139.5 148.5C139.5 148.003 139.097 147.6 138.6 147.6C138.103 147.6 137.7 148.003 137.7 148.5Z" fill="#3A3A3A"/>
</svg>
