<svg width="24" height="19" viewBox="0 0 24 19" fill="none" xmlns="http://www.w3.org/2000/svg">
<path d="M2.78797 13.3626C2.5085 13.4114 2.27434 13.4597 2.03795 13.4922C0.99774 13.6357 0.180776 12.9999 0.0279514 11.9844C-0.194233 10.5098 0.948085 8.89512 2.03853 8.45154C2.40755 8.30148 2.83897 8.29872 3.34777 8.21029C4.70378 5.15135 7.28132 3.65569 10.7814 3.4473C10.8329 2.88433 10.7952 2.6112 10.8488 2.02655V1.66591C10.8488 1.57317 10.782 1.26812 10.7814 1.08889C10.7808 0.935035 10.9996 0.583999 11.1431 0.558814C11.5405 0.489319 11.3701 0.471962 11.7555 0.558784C12.2477 0.669655 12.3184 1.0532 12.0049 1.44745C11.9405 1.51284 11.8988 1.59653 11.8858 1.68652C11.912 2.18748 11.9567 2.68739 11.9911 3.13428C12.9124 3.21486 13.7933 3.25822 14.6639 3.3742C17.5121 3.75358 19.3983 5.32292 20.427 7.92512C20.4442 7.96857 20.4647 8.01099 20.486 8.05275C20.4965 8.06722 20.5089 8.08033 20.5227 8.09175C20.9961 8.09175 21.4823 8.02907 21.9454 8.10472C22.9381 8.26681 23.68 8.7922 23.9265 9.7944C24.173 10.7966 23.7806 11.6284 23.0296 12.2894C22.291 12.9394 21.3902 13.1182 20.4147 12.9958C20.3783 13.0254 20.3468 13.0602 20.3213 13.0992C19.2307 15.6142 17.2076 17.0891 14.6411 17.9175C12.4123 18.6426 10.0121 18.6919 7.75418 18.059C5.26204 17.3838 3.46041 15.9734 2.78797 13.3626ZM10.9025 17.2503C11.4309 17.2064 11.9627 17.1864 12.4868 17.1142C14.589 16.8248 16.4491 16.0378 17.8759 14.4492C20.3803 11.6611 19.7569 6.58681 15.3888 5.17938C13.7713 4.65864 12.083 4.33815 10.3665 4.44608C8.44508 4.56699 6.76932 5.28627 5.52982 6.77626C4.38026 8.15774 3.8732 9.79752 3.83156 11.5542C3.77109 14.104 5.03909 15.8364 7.49017 16.6822C8.58875 17.0507 9.74143 17.2427 10.9025 17.2503ZM2.90389 9.22139C2.86292 9.21592 2.82135 9.21642 2.78053 9.2229C1.83586 9.49549 0.907222 11.0848 1.14795 12.0065C1.22089 12.286 1.40154 12.4521 1.68796 12.4576C1.9996 12.4636 2.3122 12.4259 2.54028 12.4122C2.66673 11.3005 2.78488 10.266 2.90389 9.22139ZM20.8183 11.6499C21.3397 11.6412 21.8402 11.4474 22.2268 11.1044C22.7521 10.6372 22.8142 9.92912 22.3621 9.52095C21.9231 9.12481 21.3969 9.01072 20.8183 9.12604V11.6499Z" fill="#3A3A3A"/>
<path d="M12.5082 13.9998C12.8348 13.9569 13.1975 13.9623 13.4762 13.8561C13.6029 13.8065 13.7141 13.7391 13.803 13.6579C13.892 13.5767 13.9569 13.4835 13.9937 13.3839C14.0499 13.1117 13.7187 12.9719 13.3549 12.938C13.1788 12.9212 12.9998 12.9286 12.8277 12.9598C12.517 13.0264 12.1878 13.0356 11.8708 12.9864C11.5538 12.9373 11.2596 12.8315 11.0159 12.679C10.7393 12.5172 10.4154 12.3948 10.1375 12.6346C9.89147 12.8469 10.0044 13.0934 10.2499 13.2832C10.5311 13.512 10.8787 13.6945 11.2686 13.8183C11.6585 13.942 12.0815 14.0039 12.5082 13.9998Z" fill="#3A3A3A"/>
<path d="M8.45232 8.08685C8.99851 8.10531 9.34009 8.48735 9.31053 9.04663C9.28696 9.4922 8.92181 9.85141 8.51144 9.83295C8.04775 9.81202 7.68018 9.35765 7.69998 8.82934C7.72017 8.29373 7.947 8.06971 8.45232 8.08685Z" fill="#3A3A3A"/>
<path d="M13.73 8.78238C13.729 8.33567 13.9039 8.13324 14.2966 8.12642C14.8041 8.11761 15.123 8.401 15.1113 8.85073C15.1012 9.23807 14.7904 9.56642 14.4254 9.57513C14.0085 9.58507 13.731 9.26847 13.73 8.78238Z" fill="#3A3A3A"/>
</svg>
