<svg width="24" height="24" viewBox="0 0 18 24" fill="none" xmlns="http://www.w3.org/2000/svg">
<g clip-path="url(#clip0_395_4964)">
<path d="M15.5938 14.0959C16.7868 12.687 17.5535 10.9939 17.8112 9.19945C18.318 5.63155 16.79 2.80747 13.5089 1.24747C12.4959 0.765812 11.3927 0.506859 10.3497 0.283055C7.67826 -0.290214 5.23222 0.154013 3.07907 1.60289C1.32694 2.78211 0.364255 4.22248 0.136085 6.00647C-0.0359365 7.36549 0.0572691 8.74314 0.410993 10.0698C1.12486 12.778 2.40211 14.9065 4.31563 16.5766C4.36329 16.6183 4.41158 16.6597 4.45996 16.7011C4.67299 16.8727 4.86929 17.0624 5.04647 17.2677C5.20868 17.4691 5.39554 17.729 5.40004 17.9529C5.41651 18.7931 5.36519 19.6212 5.3073 20.3903C5.2714 20.8665 5.21392 21.3502 5.15829 21.8181C5.12423 22.1039 5.09027 22.3899 5.06071 22.6766C4.99485 23.3132 5.22242 23.6316 5.84618 23.7758C6.21622 23.8635 6.59585 23.909 6.97713 23.9114H7.01218C8.27545 23.9012 9.55877 23.8736 10.8006 23.8469L11.629 23.8292C12.4331 23.8124 12.7571 23.5331 12.8245 22.7987C12.9425 21.5121 12.9992 20.5243 13.0079 19.5955L13.0091 19.4962C13.0161 18.9452 13.0238 18.3236 12.5204 17.7922L13.4572 16.6656C14.1712 15.8064 14.8835 14.9499 15.5938 14.0959ZM11.6438 17.6355L10.2411 17.5343C10.2391 17.5234 10.2388 17.5124 10.2401 17.5015C10.4468 16.7432 10.6556 15.9854 10.8665 15.2283C11.3356 13.5348 11.8206 11.7835 12.261 10.052C12.6008 8.71616 12.6117 7.53233 12.2938 6.43311C12.1374 5.89223 11.8404 5.49274 11.4347 5.27781C11.2393 5.1801 11.0252 5.12118 10.8053 5.1046C10.5854 5.08804 10.3642 5.11415 10.1552 5.1814C9.98861 5.2343 9.82811 5.30337 9.67627 5.38748L9.61389 5.41925C9.51571 5.4691 9.42459 5.52659 9.32815 5.58679L9.27506 5.61995C9.24857 5.58814 9.22268 5.55642 9.19691 5.5249C9.10263 5.40527 9.00198 5.29033 8.89533 5.18054C8.32844 4.61557 7.51271 4.56055 6.86501 5.04397C6.42666 5.38263 6.09442 5.82981 5.90465 6.33655C5.23681 7.97119 5.18722 9.67556 5.75729 11.4022C6.05562 12.3058 6.37164 13.2203 6.67774 14.1046C6.79311 14.4383 6.90819 14.772 7.02302 15.1058C7.27281 15.8548 7.41892 16.6315 7.45768 17.4166H6.38771C6.32808 16.6798 5.81496 16.1802 5.31884 15.6964C5.22679 15.6071 5.13476 15.5173 5.04548 15.426C2.99655 13.3347 1.87216 11.0949 1.6083 8.57859C1.51738 7.71206 1.45008 6.78939 1.57209 5.91329C1.75619 4.59134 2.54685 3.48406 3.9891 2.52796C5.74573 1.36347 7.69926 0.987373 9.79432 1.4101C10.8989 1.63284 11.9721 1.87274 12.9594 2.35498C15.5155 3.60376 16.6844 5.77693 16.3393 8.63967C16.1014 10.6136 15.1489 12.3541 13.2506 14.2833C12.7522 14.7901 12.1955 15.4118 11.846 16.181C11.6644 16.5805 11.4877 17.0519 11.6438 17.6355ZM11.7076 20.083L11.6491 20.9447H6.35999V19.9301L11.7076 20.083ZM11.5438 22.0467L11.5133 22.7088C9.93087 22.7757 8.10659 22.8323 6.30556 22.7012C6.30198 22.6777 6.29833 22.6555 6.29537 22.6346C6.28238 22.5727 6.27573 22.5099 6.2756 22.4469C6.28265 22.2999 6.29761 22.1523 6.31325 21.9961C6.31694 21.96 6.32058 21.9234 6.32419 21.8865L11.5438 22.0467ZM6.26815 18.275L6.41901 18.2792C8.23885 18.3301 9.95928 18.3783 11.7185 18.5531L11.7441 18.9678C9.94216 19.0631 8.136 19.059 6.33462 18.9554L6.26815 18.275ZM7.62991 13.8319C7.56364 13.6311 7.49696 13.4302 7.43386 13.2287C7.09022 12.1371 6.75978 11.0662 6.49428 9.96589C6.24749 8.94384 6.39201 7.86217 6.94756 6.56178C7.07019 6.30143 7.24556 6.06682 7.46362 5.87137C7.50404 5.82528 7.55418 5.7878 7.61079 5.76143C7.66739 5.73505 7.72916 5.72035 7.79211 5.71827C7.91136 5.72354 8.03498 5.7984 8.15945 5.94064C8.48048 6.30757 8.48739 6.40032 8.22567 6.84237C7.69324 7.74188 7.47637 8.60599 7.56279 9.48394C7.58304 9.76013 7.65062 10.0312 7.76285 10.2865C7.80797 10.4151 7.8892 10.5294 7.99771 10.617C8.1062 10.7046 8.23783 10.7622 8.37823 10.7835C8.51862 10.8047 8.66243 10.7888 8.79401 10.7375C8.9256 10.6862 9.03989 10.6014 9.1245 10.4924C9.31417 10.2812 9.46284 10.0394 9.56355 9.77838C9.94478 8.85285 10.0183 7.83784 9.77404 6.87109C9.69703 6.55441 9.93178 6.28841 10.4184 6.14119C10.616 6.08138 10.7713 6.0813 10.8796 6.14052C10.9357 6.17802 10.9831 6.22625 11.0186 6.28215C11.0542 6.33805 11.0771 6.40041 11.0859 6.46522C11.2086 6.98083 11.3605 7.62249 11.2839 8.19888C11.1509 9.19567 10.9246 10.2003 10.7054 11.1718C10.6645 11.3546 10.6237 11.5372 10.5828 11.7197C10.4515 12.3105 10.308 12.9095 10.1692 13.4887C9.98291 14.2667 9.79073 15.0712 9.62403 15.8675C9.55358 16.2581 9.51431 16.6531 9.50653 17.0494C9.49896 17.2083 9.49127 17.3714 9.47981 17.5384L8.23311 17.4652C8.40278 16.1735 8.01025 14.9835 7.63021 13.8319H7.62991ZM8.68649 8.80326L8.75871 8.37938C8.75843 8.52342 8.73415 8.66648 8.6868 8.80326H8.68649Z" fill="#3A3A3A"/>
</g>
<defs>
<clipPath id="clip0_395_4964">
<rect width="18" height="24" fill="white"/>
</clipPath>
</defs>
</svg>
