<svg width="24" height="24" viewBox="0 0 24 24" fill="none" xmlns="http://www.w3.org/2000/svg">
<g clip-path="url(#clip0_394_5820)">
<path d="M1.29983 17.7168C2.06817 19.582 3.09758 20.7852 4.53888 21.5035C4.73511 21.6013 4.93057 21.701 5.12594 21.8007C5.61111 22.0482 6.11286 22.3041 6.62006 22.526C8.79367 23.4771 10.7429 23.9409 12.6168 23.9408C13.2883 23.9409 13.9584 23.8808 14.6197 23.7613C17.9353 23.1637 20.4755 21.4638 22.1695 18.7089C23.0674 17.2482 23.609 15.5733 23.8731 13.4378C24.2707 10.2215 23.4268 7.14786 21.3648 4.30226C19.9672 2.37337 17.9357 1.09988 15.1544 0.408947C13.5645 0.0136579 11.8548 -0.0652098 9.92754 0.167324C7.76929 0.427768 5.94175 1.22861 4.34075 2.61572C3.17348 3.61671 2.15587 4.78936 1.32072 6.09588C0.379714 7.5845 0.0171217 9.30136 0.109237 11.8359C-0.0452956 13.5295 0.321957 15.3438 1.29983 17.7168ZM17.4446 2.5477C19.4982 3.64992 20.9611 5.29283 21.7927 7.43212C21.8339 7.53808 21.8753 7.64389 21.9169 7.74949C22.2772 8.66665 22.648 9.61257 22.7403 10.6199C22.4775 10.5569 22.2092 10.5203 21.9394 10.5107C20.5967 10.4335 19.1909 10.5585 17.5161 10.9038C16.8818 11.0344 16.2384 11.1876 15.6168 11.3357C15.3515 11.3989 15.0848 11.4618 14.8168 11.5247L13.1808 8.5846C13.2201 8.54105 13.2587 8.49776 13.2965 8.45473C13.4067 8.33029 13.5106 8.21347 13.6229 8.10565C14.9265 6.85534 15.9246 5.24637 16.7635 3.04228C16.8521 2.79734 16.9012 2.5391 16.9088 2.27783C17.0887 2.36304 17.2673 2.45301 17.4446 2.5477ZM17.4672 21.4167C17.4617 21.2092 17.4432 21.0031 17.4224 20.8059C17.1461 18.1959 16.5958 15.9401 15.7389 13.9098C15.6584 13.7082 15.5888 13.5023 15.5304 13.2927C15.5094 13.2224 15.4886 13.1526 15.4671 13.0836C16.8205 12.4847 20.3119 11.9814 22.0361 12.2948C22.0715 12.3012 22.1069 12.3083 22.1424 12.3153C22.2859 12.3501 22.4328 12.3669 22.5802 12.3654C22.6434 12.3621 22.7062 12.3527 22.7677 12.3376C22.7024 14.6132 22.2256 16.3796 21.2707 17.9365C20.3578 19.4521 19.0362 20.6614 17.4672 21.4167ZM4.38608 19.8055C3.55471 19.2757 2.90058 18.481 2.44182 17.443C1.51558 15.3477 1.11353 13.51 1.17655 11.6597C1.19909 11.3992 1.21807 11.1383 1.23698 10.8775C1.23758 10.8692 1.23827 10.8607 1.23888 10.8525C1.34735 10.8972 1.45807 10.9359 1.57056 10.9685C4.84207 11.9168 8.06955 11.5654 11.1643 9.92305C11.3555 9.82163 11.5465 9.71932 11.7559 9.60697L11.9983 9.47719C12.5504 10.375 12.9923 11.1669 13.337 12.0567C13.2679 12.0887 13.2024 12.119 13.1384 12.1486C12.9636 12.2294 12.7984 12.3057 12.6385 12.3857C12.4227 12.4935 12.2051 12.5991 11.9879 12.7045C11.4652 12.9581 10.9248 13.22 10.4109 13.5145C8.29638 14.7206 6.49043 16.4267 5.14191 18.4923C4.87274 18.921 4.63867 19.3719 4.4421 19.8406C4.42362 19.8288 4.4049 19.8175 4.38608 19.8055ZM5.38319 20.384C5.4577 20.2663 5.53065 20.1471 5.6036 20.028C5.77911 19.7416 5.9605 19.4456 6.16078 19.174C7.991 16.6935 10.4454 14.8451 13.4569 13.6807C13.5811 13.6364 13.708 13.6007 13.8368 13.574C13.8831 13.5631 13.9308 13.5519 13.9799 13.5398C14.6915 15.4132 15.4206 17.3502 15.6875 19.4047C15.7094 19.5727 15.731 19.7407 15.7522 19.9087C15.8331 20.5446 15.9168 21.2019 16.0238 21.8452C16.031 21.8885 16.0404 21.9298 16.0506 21.9703C15.5751 22.1152 15.0912 22.2291 14.6017 22.311C11.5721 22.8228 8.54316 22.1972 5.37292 20.3999L5.38319 20.384ZM15.3851 2.29936L15.3777 2.32769C15.0984 3.39365 14.5956 4.43828 13.7475 5.71437C13.3437 6.31872 12.8558 6.85855 12.2992 7.3165C12.1944 7.17588 12.0917 7.03752 11.9909 6.90139C11.7377 6.5597 11.4984 6.23694 11.2508 5.91472C10.0067 4.29694 8.9539 3.1503 7.83732 2.19528C7.73573 2.10913 7.62848 2.03028 7.51634 1.95934C8.15227 1.7012 8.81379 1.51586 9.48907 1.40664C11.7281 1.0382 13.7452 1.1524 15.6007 1.75747C15.4961 1.92236 15.4229 2.10627 15.3851 2.29936ZM6.50403 2.58069C6.77424 2.86691 7.05793 3.14806 7.33229 3.41997C7.70506 3.78966 8.09054 4.17177 8.44519 4.56911C9.46066 5.70064 10.375 6.92414 11.1771 8.22474C11.108 8.27123 11.0439 8.31472 10.984 8.35552C10.8344 8.45756 10.7053 8.54576 10.5742 8.61936C7.89473 10.1221 4.97208 10.5359 1.88774 9.84901C1.69324 9.80563 1.5109 9.76848 1.3316 9.7435C1.3524 9.53745 1.37476 9.33168 1.40368 9.1283C1.57151 7.93337 1.94619 6.9941 2.54938 6.25721C3.22103 5.43633 4.0107 4.49116 4.88385 3.66298C5.35606 3.21403 5.87629 2.82182 6.43453 2.49384C6.45573 2.5244 6.47895 2.55343 6.50403 2.58069Z" fill="#3a3a3a" stroke="#3a3a3a" stroke-width="0.3"/>
</g>
<defs>
<clipPath id="clip0_394_5820">
<rect width="24" height="24" fill="white"/>
</clipPath>
</defs>
</svg>
