<svg width="24" height="24" viewBox="0 0 24 24" fill="none" xmlns="http://www.w3.org/2000/svg">
<g clip-path="url(#clip0_395_4946)">
<path d="M23.8995 0.609527C23.8712 0.522819 23.8249 0.443512 23.7639 0.377147C23.7029 0.310784 23.6285 0.258961 23.546 0.225315C23.4061 0.165031 23.257 0.131115 23.1055 0.125143L22.9104 0.117595C22.4426 0.0991497 21.9591 0.0802791 21.4825 0.0905498C19.2534 0.139912 17.5443 1.24642 16.4025 3.37917C16.1068 3.91318 15.959 4.52065 15.9754 5.13527C15.9828 5.35661 15.9014 5.47231 15.7254 5.63507C15.1903 6.13017 14.6373 6.64224 14.1199 7.17569C13.6082 7.70348 13.0947 8.24657 12.598 8.77174C11.9008 9.50893 11.1799 10.2713 10.4541 11.0024C8.18841 13.2843 5.87434 15.5934 3.63644 17.8267C2.76274 18.6985 1.88924 19.5704 1.01595 20.4427C0.3227 21.1356 0.0166963 21.8391 0.0532048 22.6569C0.055047 22.9024 0.129312 23.1417 0.266129 23.3428C0.402945 23.544 0.595842 23.6975 0.819269 23.7831C1.07655 23.8995 1.35428 23.9603 1.63529 23.9618C1.99785 23.9584 2.3534 23.8583 2.66719 23.6712C3.36237 23.2691 4.09008 22.8232 4.67503 22.1848C5.65212 21.1185 6.67578 20.0259 7.71754 18.9359C8.63768 17.9735 9.58385 17.0051 10.4989 16.0686C13.0078 13.5009 15.6023 10.8455 17.9439 8.02196C18.1952 7.71877 18.4071 7.51797 18.8463 7.69635L18.8768 7.70861L18.908 7.70075C19.002 7.67717 19.1035 7.65601 19.2092 7.6339C19.4791 7.58493 19.7444 7.51231 20.0024 7.41684C20.4853 7.23476 20.9198 6.93811 21.2708 6.55086C21.6218 6.16361 21.8794 5.69666 22.0228 5.18777C22.224 4.52751 22.3677 3.86535 22.4816 3.30476C22.6696 2.38092 22.988 1.822 23.5464 1.4358C23.6588 1.35617 23.7538 1.25314 23.8252 1.13333C23.8738 1.05688 23.9058 0.970385 23.9186 0.879902C23.9314 0.789419 23.9249 0.697136 23.8995 0.609527ZM1.30702 22.5578C1.27966 22.5222 1.26053 22.4806 1.25105 22.4363C1.24158 22.3919 1.24199 22.3459 1.25229 22.3018C1.25879 22.1383 1.29846 21.9781 1.36876 21.8314C1.43905 21.6848 1.53839 21.555 1.66039 21.4504C2.17618 20.9876 2.66809 20.4813 3.14392 19.9916C3.35067 19.779 3.55742 19.5663 3.76651 19.3564C6.44759 16.6659 9.12912 13.9759 11.8111 11.2865C11.8367 11.2627 11.8637 11.2404 11.8918 11.2198L11.9134 11.2031L12.5325 12.0129C12.5061 12.0425 12.4808 12.0711 12.4561 12.099C12.3715 12.1943 12.2954 12.2804 12.2161 12.3633L11.8914 12.7034C9.50967 15.1982 7.1272 17.6925 4.74408 20.1865L4.66925 20.2645C4.01393 20.9506 3.33623 21.66 2.50406 22.1382C2.19262 22.3171 1.86317 22.4606 1.52157 22.566C1.48746 22.5811 1.45052 22.5882 1.4134 22.5869C1.37628 22.5854 1.33995 22.5756 1.30702 22.5578ZM22.0731 1.34369C21.5886 1.98487 21.398 2.70612 21.2132 3.40631C21.1606 3.60544 21.1063 3.81098 21.0464 4.00937C20.945 4.36421 20.8129 4.70888 20.6515 5.03927C20.2488 5.83336 19.4527 6.22072 18.5743 6.05031C18.3314 6.00314 18.0893 5.9501 17.8625 5.89969C17.3705 5.79059 17.1775 5.53154 17.2173 5.03341C17.2315 4.7947 17.2847 4.56016 17.3744 4.3396C18.1404 2.57628 19.3003 1.59983 20.9205 1.35459C21.0724 1.33309 21.2256 1.32314 21.379 1.32483C21.5092 1.32483 21.6449 1.32963 21.7895 1.33529C21.8818 1.33812 21.9762 1.34138 22.0733 1.34369H22.0731ZM17.1598 7.11258L13.6128 10.9179L12.9266 10.1214L16.3405 6.40225L17.1598 7.11258Z" fill="#3A3A3A"/>
</g>
<defs>
<clipPath id="clip0_395_4946">
<rect width="24" height="24" fill="white"/>
</clipPath>
</defs>
</svg>
