<svg width="24" height="24" viewBox="0 0 24 24" fill="none" xmlns="http://www.w3.org/2000/svg">
<g clip-path="url(#clip0_395_4943)">
<path d="M20.2105 2.45548C20.7513 2.45548 21.1952 2.41563 21.6283 2.46393C22.4875 2.56073 23.1577 2.95699 23.5133 3.75626C24.0038 4.80614 24.1032 5.98778 23.7945 7.10047C23.5755 7.89406 23.0513 8.44051 22.3139 8.80738C21.4321 9.23984 20.4776 9.51667 19.4951 9.62486C17.9757 9.80193 16.4474 9.91008 14.9217 10.0398C14.3626 10.0874 13.8015 10.1137 13.2152 10.1512C12.8731 11.3274 13.0036 12.5039 12.9274 13.7358C13.1455 13.7358 13.3316 13.7248 13.5159 13.7383C13.7611 13.751 14.005 13.7807 14.2456 13.8274C14.4582 13.8736 14.5468 14.0326 14.5546 14.2473C14.5958 15.3337 14.6503 16.4198 14.6885 17.5065C14.7249 18.5447 14.737 19.5838 14.7776 20.6219C14.8122 21.5042 14.8682 22.3859 14.9233 23.2674C14.9392 23.4035 14.908 23.5408 14.8344 23.6579C14.7608 23.7749 14.6491 23.8648 14.5167 23.9137C14.3837 23.959 14.2434 23.9812 14.1024 23.9794C13.0275 23.9677 11.9526 23.9503 10.8778 23.9272C10.7192 23.9208 10.5621 23.896 10.4095 23.8536C9.96828 23.7397 9.76166 23.4958 9.74075 23.0501C9.63208 20.7359 9.56358 18.4216 9.73724 16.1072C9.77422 15.6152 9.78813 15.1201 9.85323 14.6317C9.91637 14.1586 10.2438 13.8802 10.7322 13.8319C11.027 13.8027 11.324 13.7934 11.6728 13.7722C11.7078 13.3332 11.7392 12.9133 11.7748 12.4938C11.8408 11.7139 11.872 10.929 11.9863 10.1557C12.1269 9.20542 12.5521 8.86605 13.5302 8.80431C15.095 8.70542 16.661 8.62304 18.224 8.50284C19.297 8.43267 20.3558 8.22718 21.3735 7.89152C22.5197 7.49985 22.9101 7.02602 22.9193 5.856C22.9232 5.35469 22.7927 4.84716 22.6809 4.35143C22.5593 3.81197 22.1587 3.51495 21.6183 3.406C21.2226 3.32634 20.8184 3.28647 20.3514 3.21846C20.3756 3.45856 20.4016 3.67236 20.4177 3.88686C20.4493 4.31109 20.4898 4.73544 20.5007 5.16037C20.5213 5.95894 20.0251 6.57448 19.1155 6.60824C16.4406 6.70783 13.7696 6.89806 11.0946 7.00522C8.82411 7.09624 6.551 7.14332 4.27862 7.16374C3.43728 7.17131 2.594 7.05419 1.75297 6.97881C1.54306 6.95467 1.33712 6.90512 1.13999 6.83133C0.556569 6.62818 0.18802 6.21997 0.141977 5.62634C0.0389731 4.29858 0.0452552 2.96951 0.39444 1.66863C0.602715 0.892472 1.08581 0.37073 1.96268 0.300025C2.87479 0.226431 3.78719 0.125354 4.70094 0.108027C7.59001 0.0531552 10.4794 0.00196719 13.3692 0.00953566C14.9174 0.0136187 16.4662 0.12635 18.0126 0.222151C18.4692 0.258404 18.9197 0.346232 19.3551 0.483854C20.175 0.729231 20.4286 1.20087 20.2463 2.00751C20.2239 2.15586 20.2119 2.30555 20.2105 2.45548ZM9.94274 0.855522L9.9416 0.913168C8.03932 0.953699 6.13651 0.981678 4.23516 1.04093C3.44522 1.06553 2.65703 1.15129 1.86915 1.2208C1.56013 1.24799 1.33826 1.40234 1.28491 1.71873C1.15687 2.48025 1.24917 3.2155 1.65728 3.88322C1.93055 4.33015 2.14983 4.32843 2.51735 3.9529C2.77157 3.69338 3.01827 3.42513 3.29268 3.18612C3.66349 2.86396 4.08437 2.62106 4.59589 2.5626C5.40004 2.47068 5.99149 2.81226 6.45089 3.41525C6.7116 3.75762 6.93923 4.12558 7.22013 4.45092C7.74174 5.0554 8.22626 5.02851 8.73047 4.41537C9.00415 4.08246 9.26765 3.73133 9.59417 3.45229C9.92941 3.18243 10.2944 2.94908 10.6824 2.75641C10.8324 2.68029 11.0011 2.64532 11.1702 2.65537C11.3392 2.66541 11.5023 2.72005 11.6414 2.81335C11.8862 2.97645 12.1109 3.1657 12.3117 3.37751C12.5953 3.65635 12.8437 3.96876 13.1342 4.23993C13.4638 4.54785 13.549 4.52395 13.8669 4.20866C14.1133 3.94348 14.3837 3.70014 14.6749 3.48167C15.2377 3.09588 15.8408 3.04352 16.454 3.40591C16.6467 3.5241 16.849 3.62711 17.0587 3.714C17.7737 3.99623 18.3372 3.84146 18.7345 3.20611C18.9582 2.82144 19.1502 2.42037 19.3088 2.00661C19.453 1.66373 19.3972 1.56844 19.0436 1.43291C18.9299 1.38708 18.8107 1.35485 18.6888 1.33692C17.9043 1.23614 17.1214 1.09014 16.3334 1.05569C14.2044 0.963971 12.073 0.919356 9.94274 0.855522ZM19.6305 3.53885L19.5069 3.50895C19.4173 3.60853 19.3278 3.70812 19.2382 3.8077C19.0423 4.03937 18.7881 4.21856 18.5001 4.32814C18.212 4.43772 17.8997 4.47404 17.5929 4.4336C17.1052 4.386 16.6884 4.18462 16.2773 3.949C15.7682 3.65712 15.4327 3.67917 14.9827 4.05122C14.7431 4.24939 14.5376 4.48619 14.3186 4.70737C13.9028 5.12732 13.5191 5.17664 13.0057 4.86205C12.8711 4.78176 12.7472 4.68562 12.637 4.57584C12.3717 4.30367 12.115 4.02331 11.8644 3.7386C11.3535 3.15832 11.074 3.12179 10.4413 3.59283C10.2482 3.74023 10.07 3.90511 9.90916 4.08525C9.63012 4.39148 9.37106 4.71453 9.09924 5.02703C8.72327 5.45913 8.26397 5.60684 7.68437 5.45956C7.20433 5.33636 6.78725 5.04809 6.51135 4.64883C6.3072 4.37188 6.12313 4.08119 5.91311 3.80843C5.33319 3.05596 4.69982 2.97049 3.93357 3.56491C3.61214 3.82924 3.30794 4.11254 3.02269 4.41319C2.40879 5.02434 1.85874 5.0113 1.2813 4.35921C1.1783 4.2428 1.0786 4.12378 0.924499 3.94443C0.924499 4.35024 0.924499 4.65648 0.924499 4.9626C0.924499 5.03072 0.923366 5.09901 0.928001 5.16683C0.974662 5.85327 1.12145 6.05417 1.81868 6.14649C2.56707 6.25143 3.32157 6.31058 4.07767 6.32363C5.32711 6.33518 6.57748 6.29465 7.82703 6.2593C9.14662 6.22195 10.4666 6.1834 11.7845 6.1124C13.9456 5.99598 16.1055 5.85688 18.2653 5.71766C18.7342 5.68779 19.2003 5.61619 19.6303 5.56829L19.6305 3.53885ZM13.6387 22.8057C13.8197 21.5943 13.8246 15.493 13.6535 14.7581L10.6987 14.6524C10.7523 17.3494 10.805 20.0091 10.8583 22.6914L13.6387 22.8057Z" fill="#3A3A3A"/>
</g>
<defs>
<clipPath id="clip0_395_4943">
<rect width="24" height="24" fill="white"/>
</clipPath>
</defs>
</svg>
