<svg width="24" height="24" viewBox="0 0 18 24" fill="none" xmlns="http://www.w3.org/2000/svg">
<g clip-path="url(#clip0_395_4952)">
<path d="M17.894 13.3552C17.894 15.6152 17.8991 17.8752 17.8899 20.1352C17.8922 20.5997 17.8587 21.0638 17.7897 21.5249C17.7553 21.8011 17.6458 22.0677 17.469 22.3058C16.9498 22.9403 16.1537 23.4518 15.1999 23.6124C14.4328 23.7533 13.6517 23.8386 12.8657 23.8671C10.2151 23.9218 7.5631 23.9377 4.91145 23.9526C4.37583 23.9556 3.83895 23.8938 3.30357 23.8537C1.81083 23.7421 1.03164 22.9563 0.619714 21.9062C0.414214 21.3821 0.375561 20.8131 0.289715 20.2615C-0.0102841 18.3348 0.0550249 16.3991 0.0854864 14.4643C0.110486 12.8701 0.131406 11.2759 0.148253 9.68162C0.164868 7.85504 0.147215 6.02795 0.1951 4.202C0.212368 3.58427 0.313786 2.96996 0.497523 2.3701C0.837331 1.26173 1.79503 0.691388 3.17283 0.467574C6.37233 -0.052054 9.5941 0.0177457 12.8218 0.154211C13.9641 0.20249 14.9878 0.53148 15.9401 1.02962C16.6134 1.37654 17.1087 1.90764 17.3351 2.52535C17.5187 3.02943 17.6317 3.54849 17.6721 4.07281C17.7799 5.72609 17.8562 7.38065 17.9012 9.03653C17.9377 10.4755 17.9088 11.9156 17.9088 13.3552H17.894ZM2.10368 18.9756C6.81112 18.6403 11.5385 18.523 16.2626 18.6243C16.2763 18.4303 16.2952 18.2789 16.2964 18.1275C16.3257 14.4594 16.2387 10.6983 16.2632 7.0298C16.2651 6.84441 16.2498 6.65917 16.217 6.47566C16.0633 5.63482 16.0279 4.88646 15.8504 4.04888C15.7691 3.68558 15.6584 3.32693 15.5192 2.9752C15.4477 2.7902 15.3259 2.62042 15.1626 2.47825C14.9994 2.33607 14.7987 2.22508 14.5753 2.15344C13.929 1.91204 13.2277 1.78098 12.5156 1.76844C11.7663 1.75737 11.0156 1.76461 10.2678 1.73652C8.01103 1.65168 5.77937 1.81353 3.55568 2.1166C2.8478 2.21307 2.46103 2.52255 2.31137 3.05846C2.25095 3.26947 2.21236 3.48415 2.19599 3.70031C2.16864 4.10189 2.15883 4.50453 2.15537 4.90676C2.12645 8.31141 2.09907 11.7163 2.07322 15.1213C2.06514 16.1118 2.04749 17.1022 2.04437 18.0926C2.04426 18.3663 2.08026 18.64 2.10368 18.9756ZM16.1831 19.6929L2.16899 19.8261C2.26049 20.5331 2.21791 21.1851 2.4668 21.8052C2.65799 22.2813 3.0676 22.5853 3.7351 22.5943C3.98468 22.5977 4.23391 22.6137 4.48337 22.6145C5.29003 22.6169 6.09657 22.6156 6.90322 22.6145C9.07337 22.612 11.2438 22.6218 13.4134 22.5973C13.9877 22.5878 14.5584 22.5222 15.113 22.402C15.6242 22.2933 16.1069 22.0333 16.1645 21.577C16.2397 20.9826 16.1831 20.3778 16.1831 19.693V19.6929Z" fill="#3A3A3A"/>
<path d="M10.4177 21.0632C10.416 21.5594 9.83318 21.9908 9.15045 22.0013C9.00133 22.0044 8.85296 21.9832 8.71426 21.9388C8.57557 21.8946 8.44943 21.8282 8.34343 21.7435C8.23742 21.6588 8.15375 21.5578 8.09744 21.4465C8.04113 21.3351 8.01335 21.2157 8.01577 21.0954C8.02598 20.8378 8.15693 20.5929 8.38224 20.41C8.60756 20.2271 8.91049 20.1199 9.22996 20.1099C9.82892 20.1038 10.4191 20.5777 10.4177 21.0632Z" fill="#3A3A3A"/>
</g>
<defs>
<clipPath id="clip0_395_4952">
<rect width="18" height="24" fill="white"/>
</clipPath>
</defs>
</svg>
