<svg width="24" height="24" viewBox="0 0 24 24" fill="none" xmlns="http://www.w3.org/2000/svg">
<g clip-path="url(#clip0_395_4949)">
<path d="M14.2831 3.64776C14.9911 3.64776 15.6405 3.64237 16.2898 3.64935C16.8693 3.6554 17.4554 3.6178 18.0267 3.70055C19.2498 3.87803 19.9489 4.68468 20.0731 6.05691C20.1535 6.94628 20.153 7.84468 20.1909 8.79371C20.4908 8.84984 20.7876 8.92399 21.0803 9.01587C22.3878 9.49416 23.3773 10.3669 23.8129 11.87C24.2455 13.365 23.9037 14.6038 22.7943 15.5752C22.152 16.1377 21.4409 16.5553 20.554 16.6869C20.6188 17.3209 20.6915 17.9326 20.7417 18.5473C20.8051 19.3245 20.8533 20.1032 20.9005 20.8817C20.9069 21.0381 20.8981 21.1946 20.8743 21.3489C20.6831 22.758 20.0846 23.376 18.7952 23.4239C17.5626 23.4696 16.3278 23.4494 15.0949 23.4913C14.198 23.522 13.6339 23.0799 13.3204 22.161C13.1592 21.7071 12.9711 21.2656 12.7575 20.8393C12.0253 19.3322 10.306 19.2265 9.29316 20.1224C8.59129 20.7434 8.18429 21.5738 7.92318 22.5054C7.88501 22.6357 7.85993 22.7704 7.84839 22.9069C7.81749 23.3383 7.60118 23.6018 7.23439 23.6741C6.59576 23.7998 5.94851 23.9902 5.30824 23.9735C4.11339 23.9424 2.92143 23.7837 1.72854 23.6738C1.62401 23.6585 1.52096 23.6325 1.42083 23.5959C0.431269 23.2896 0.0432698 22.7568 0.0359564 21.6197C0.0266861 20.1729 0.0433824 18.7261 0.0484297 17.2793C0.0490477 17.1038 0.051082 16.928 0.0452108 16.7526C0.027082 16.2136 0.219626 15.9738 0.717857 15.9297C1.1203 15.8936 1.52274 15.8541 1.92589 15.8306C3.20789 15.7564 4.23048 13.4184 3.31343 11.9713C2.94262 11.3864 2.38713 11.0868 1.73799 11.0227C1.44042 10.9932 1.14251 10.9646 0.845959 10.9249C0.728335 10.9199 0.617256 10.8636 0.536745 10.7684C0.456233 10.6731 0.412795 10.5464 0.415835 10.4159C0.415114 9.01267 0.220096 7.60343 0.505109 6.20811C0.532302 6.07497 0.56581 5.94273 0.604642 5.81324C0.887801 4.8697 1.46441 4.28525 2.3623 4.1952C3.07901 4.12343 3.80311 4.13735 4.52403 4.12432C5.06697 4.11449 5.61023 4.12228 6.17552 4.12228C6.20642 4.01874 6.24103 3.91061 6.27235 3.80147C6.82754 1.86913 8.03814 0.659189 9.76604 0.167989C11.3282 -0.276125 13.3373 0.394726 14.0193 2.72181C14.1115 3.03541 14.1991 3.35153 14.2831 3.64776ZM1.34418 9.80639C1.53525 9.80639 1.63861 9.80639 1.74192 9.80639C3.91788 9.80056 5.34355 11.7786 5.06224 14.0776C4.9647 14.8751 4.61602 15.55 4.21935 16.2006C3.88679 16.7367 3.40322 17.1352 2.84449 17.3336C2.2759 17.5693 1.65781 17.6165 1.0655 17.4694C1.05135 17.5535 1.04387 17.6389 1.04322 17.7245C1.15271 18.9685 1.25759 20.2132 1.3813 21.4556C1.42374 21.8809 1.51933 21.977 1.92187 22.0302C2.56884 22.1156 3.21773 22.2113 3.86769 22.2338C4.84901 22.2681 5.83191 22.2428 6.81704 22.2428C6.82498 22.2321 6.84113 22.2199 6.84556 22.2029C6.88078 22.0721 6.91068 21.94 6.94786 21.8097C7.27861 20.6509 7.77126 19.6064 8.68037 18.8695C9.46599 18.2329 10.3426 17.9334 11.315 18.1013C12.9837 18.3895 13.9295 19.5774 14.452 21.2697C14.525 21.5057 14.578 21.7497 14.6438 22.0031C14.8452 22.0031 15.0192 22.0087 15.1928 22.0022C15.897 21.9757 16.6013 21.9508 17.3051 21.9149C17.78 21.8906 18.2554 21.863 18.7283 21.8112C19.2144 21.758 19.3098 21.6626 19.3257 21.1212C19.3419 20.5759 19.3102 20.0281 19.2857 19.4823C19.2471 18.6252 19.1998 17.768 19.1495 16.9109C19.1454 16.6984 19.1181 16.4874 19.0683 16.2823C18.8792 15.6274 19.0177 15.2752 19.6061 15.0802C19.9928 14.9521 20.393 14.8745 20.7862 14.7693C21.3033 14.6362 21.7783 14.3505 22.1611 13.9425C22.2911 13.8093 22.3944 13.6473 22.4644 13.467C22.5344 13.2866 22.5694 13.092 22.5673 12.8958C22.5836 12.3445 22.4413 11.8018 22.1609 11.3464C21.6896 10.6125 21.0394 10.17 20.2722 9.93461C20.1051 9.89964 19.9325 9.91895 19.7751 9.99017C19.2877 10.1845 18.987 10.0244 18.9002 9.44764C18.8429 9.04242 18.8116 8.6332 18.8064 8.22307C18.7926 7.5785 18.8263 6.93233 18.8021 6.28856C18.7673 5.36284 18.5003 5.03621 17.6909 4.85359C17.553 4.8228 17.4129 4.80539 17.2722 4.80159C16.4269 4.77781 15.5814 4.76443 14.7362 4.73632C14.5048 4.72866 14.3149 4.7257 14.1144 4.93576C13.8292 5.23416 13.4775 5.16011 13.2523 4.79508C13.1316 4.58067 13.0398 4.34773 12.9801 4.10376C12.8706 3.71324 12.7964 3.31073 12.6925 2.91816C12.5216 2.27233 12.1297 1.84661 11.5729 1.60604C10.7367 1.24467 9.91446 1.28262 9.13091 1.77747C8.06234 2.45233 7.27774 3.39817 6.9815 4.75348C6.8888 5.17851 6.65726 5.33794 6.31539 5.36777C6.06923 5.38146 5.82258 5.37908 5.57667 5.36068C4.62717 5.31885 3.68138 5.21211 2.72714 5.34994C2.1359 5.43531 1.82443 5.7458 1.6625 6.37209C1.37605 7.48135 1.50435 8.62136 1.34418 9.80639Z" fill="#3A3A3A"/>
</g>
<defs>
<clipPath id="clip0_395_4949">
<rect width="24" height="24" fill="white"/>
</clipPath>
</defs>
</svg>
