<svg width="24" height="24" viewBox="0 0 24 24" fill="none" xmlns="http://www.w3.org/2000/svg">
<g clip-path="url(#clip0_395_4936)">
<path d="M21.0991 8.85866C21.142 8.88417 21.1875 8.90389 21.2348 8.91736C22.6319 8.97824 23.3018 9.98944 23.6749 11.2777C24.0054 12.4187 23.9981 13.613 23.8803 14.8034C23.8046 15.5693 23.7644 16.3394 23.6949 17.1062C23.6411 17.7641 23.4514 18.4 23.1403 18.9658C22.84 19.5052 22.4229 19.8905 21.842 19.9798C21.0103 20.1076 20.1739 20.198 19.3391 20.3004C19.1874 20.319 19.0338 20.3186 18.8169 20.3305C18.909 20.794 18.9922 21.224 19.0802 21.6528C19.1517 22.0012 19.2368 22.3464 19.3004 22.6964C19.3352 22.8605 19.3443 23.0297 19.3274 23.197C19.3122 23.3679 19.2435 23.5277 19.1331 23.6495C19.0226 23.7712 18.8771 23.8472 18.7214 23.8647C18.5653 23.8849 18.4078 23.8421 18.2785 23.7442C18.1492 23.6464 18.0567 23.5003 18.0184 23.3333C17.9257 22.8946 17.855 22.4507 17.8066 22.0035C17.7327 21.4881 17.6651 20.9715 17.5975 20.4758H6.23819C6.14038 21.1043 6.04839 21.7297 5.94365 22.3526C5.89753 22.6678 5.83099 22.9789 5.74453 23.2838C5.5919 23.78 5.26584 24.0183 4.90774 23.9404C4.54112 23.8607 4.30101 23.4462 4.3943 22.9165C4.51098 22.2538 4.68923 21.6041 4.83966 20.9484C4.87651 20.7873 4.90864 20.6251 4.95915 20.3869C4.42502 20.3215 3.92112 20.276 3.42275 20.1941C2.94769 20.1232 2.47659 20.0233 2.01167 19.8949C1.1303 19.6375 0.575693 19.0066 0.465233 18.0041C0.325451 16.7356 0.231255 15.461 0.128527 14.1878C0.081732 13.6077 0.0332396 13.0247 0.0381601 12.4435C0.0292763 11.9375 0.0767529 11.4322 0.179546 10.9387C0.535931 9.45042 1.70299 8.563 3.10523 8.65272C3.23779 8.6612 3.37013 8.67473 3.51774 8.68761C3.35828 6.85084 3.44403 5.05095 3.583 3.25172C3.69567 1.79268 4.32181 0.942324 5.59883 0.523755C6.59649 0.196672 7.62868 0.113547 8.65646 0.105401C11.6799 0.0823916 14.7035 0.102659 17.7271 0.116421C18.088 0.110258 18.4483 0.147894 18.8016 0.228689C19.8956 0.506451 20.579 1.26896 20.7867 2.47688C20.9373 3.30662 21.0359 4.14667 21.0819 4.99115C21.1328 6.11794 21.0975 7.24946 21.0991 8.379C21.0994 8.54513 21.0991 8.71136 21.0991 8.85866ZM18.7257 11.0599C18.8216 10.8419 18.9281 10.6298 19.0448 10.4244C19.2368 10.1153 19.5509 9.85503 19.6365 9.51981C19.7275 9.163 19.5955 8.74342 19.5913 8.35083C19.5784 7.14665 19.6043 5.94147 19.5668 4.7385C19.531 4.02536 19.4598 3.31487 19.3536 2.61021C19.2733 2.0014 18.9169 1.64459 18.3768 1.52514C18.1248 1.47006 17.8682 1.44357 17.6111 1.4461C16.2548 1.45766 14.8985 1.47362 13.5425 1.50477C11.7919 1.54518 10.0403 1.57324 8.29165 1.66429C7.54282 1.70326 6.79541 1.86147 6.05623 2.01384C5.43303 2.1421 5.10887 2.58708 5.00444 3.29155C4.71483 5.24634 4.59704 7.21512 4.5388 9.19017C4.53902 9.33579 4.58253 9.47738 4.66272 9.59345C5.13267 10.2219 5.4498 10.9706 5.58456 11.7696C5.59201 11.8122 5.61159 11.8511 5.64049 11.8806C6.30616 11.74 6.92145 11.5401 7.54655 11.4906C9.72041 11.3189 11.8965 11.1633 14.0738 11.0723C15.5969 11.0085 17.1236 11.0599 18.7257 11.0599ZM12.8789 18.8586V18.8133C14.8713 18.8133 16.8639 18.8324 18.856 18.8038C19.6434 18.7928 20.4302 18.6827 21.2158 18.6033C21.4238 18.5893 21.6226 18.5049 21.785 18.3619C21.9475 18.2189 22.0655 18.0243 22.123 17.8047C22.1962 17.5375 22.2367 17.2609 22.2434 16.982C22.2746 16.3814 22.2434 15.7742 22.3085 15.1788C22.439 14.1147 22.4573 13.0375 22.363 11.9688C22.3103 11.5007 22.1417 11.0575 21.8754 10.6871C21.6802 10.399 21.4236 10.3059 21.1105 10.3325C20.5415 10.3807 20.0454 10.8633 19.8821 11.597C19.7315 12.2721 19.6135 12.9564 19.4985 13.6402C19.3847 14.3166 19.0384 14.7956 18.5198 15.1574C18.1131 15.4426 17.6471 15.6101 17.1653 15.6443C16.0863 15.7284 15.0076 15.8512 13.9273 15.8717C11.8324 15.9117 9.73606 15.9219 7.64103 15.8804C6.94654 15.8668 6.25255 15.6729 5.56338 15.5316C4.8968 15.3947 4.58782 14.871 4.49734 14.1851C4.43378 13.7029 4.42059 13.2123 4.39368 12.7248C4.3496 11.9269 4.24789 11.1518 3.77712 10.4947C3.37314 9.93089 2.86252 9.772 2.27256 10.069C1.85191 10.281 1.50587 10.6008 1.4161 11.1249C1.31494 11.6182 1.26084 12.1219 1.25463 12.6276C1.27562 13.5854 1.35735 14.5425 1.42975 15.4985C1.47946 16.1544 1.56451 16.807 1.61804 17.4627C1.66212 18.0021 1.91015 18.3286 2.39317 18.4411C2.49223 18.4709 2.59282 18.4942 2.69442 18.5109C3.90778 18.6291 5.12003 18.8131 6.33539 18.8433C8.51538 18.8975 10.6976 18.8586 12.8789 18.8586ZM18.3833 12.5323C18.1281 12.4814 17.8706 12.445 17.6119 12.4235C14.1936 12.3781 10.7797 12.4931 7.3701 12.7686C6.93379 12.8034 6.49899 12.9591 6.07894 13.1099C5.77708 13.2184 5.79776 13.5282 5.81634 13.8255C5.83492 14.1227 6.00099 14.2082 6.2199 14.2361C6.78144 14.3078 7.34257 14.4054 7.90622 14.4308C11.0493 14.5719 14.1861 14.3058 17.3254 14.205C17.7021 14.1928 18.0084 14.0131 18.147 13.6368C18.2647 13.3175 18.2962 12.9595 18.3833 12.5323Z" fill="#3A3A3A"/>
</g>
<defs>
<clipPath id="clip0_395_4936">
<rect width="24" height="24" fill="white"/>
</clipPath>
</defs>
</svg>
