<svg width="24" height="24" viewBox="0 0 24 24" fill="none" xmlns="http://www.w3.org/2000/svg">
<g clip-path="url(#clip0_395_4959)">
<path d="M23.9938 6.99259C23.8697 9.29342 23.6083 11.5806 22.8071 13.7729C22.0506 15.8427 21.4204 17.9633 20.3152 19.8976C20.1633 20.1635 19.9901 20.4206 19.8663 20.6986C19.3331 21.8954 18.3959 22.7182 17.333 23.4556C15.6906 24.5961 13.5839 23.6309 13.2838 21.9817C13.1506 21.2498 13.0833 20.5057 13.0026 19.7653C12.8833 18.6702 12.8059 17.5699 12.6562 16.4791C12.5678 15.9445 12.4281 15.4192 12.2388 14.9102C12.0736 14.4274 11.7098 14.3596 11.3301 14.7144C10.9951 15.0393 10.7706 15.4575 10.6872 15.912C10.4759 16.9064 10.3284 17.9162 10.0695 18.898C9.81099 19.8777 9.46902 20.8382 9.12248 21.793C8.93474 22.3103 8.55479 22.7146 8.13403 23.0816C7.19712 23.8986 5.80603 23.679 5.04947 22.8822C3.61656 21.3731 2.59762 19.659 2.10446 17.6434C1.71347 16.0461 1.21029 14.473 0.873073 12.8657C0.364212 10.4403 -0.0309427 7.99148 0.0825763 5.49974C0.118044 4.90807 0.202433 4.32018 0.334925 3.74188C0.63933 2.32509 1.59065 1.43303 2.90052 0.880733C4.0506 0.395874 5.22394 0.26783 6.43711 0.712821C7.32744 1.0393 8.23012 1.34556 9.14799 1.58437C10.0683 1.81676 11.0001 2.00274 11.9399 2.14161C12.6061 2.24485 13.2398 2.0458 13.8452 1.75959C14.5928 1.40613 15.3455 1.06316 16.1034 0.730666C16.9803 0.344583 17.906 0.1646 18.8624 0.0708806C20.802 -0.119136 22.5426 1.30389 23.1728 2.56428C23.6306 3.47995 23.8031 4.46128 23.9054 5.45887C23.9568 5.96505 23.9651 6.475 23.9938 6.99259ZM1.23853 6.30402C1.24026 7.76574 1.51196 10.4055 1.92482 12.2773C2.29728 13.9657 2.75621 15.6357 3.16785 17.3159C3.59958 19.0706 4.43988 20.7038 5.62305 22.0878C6.10224 22.6566 6.77301 22.7297 7.27366 22.1883C7.57159 21.8616 7.80872 21.4863 7.97424 21.0794C8.50771 19.768 8.78698 18.3877 9.03528 17.0013C9.16956 16.2512 9.29857 15.4969 9.65878 14.807C9.9409 14.2663 10.3161 13.8104 10.8783 13.5262C11.7885 13.0663 12.7404 13.3248 13.2553 14.1882C13.3989 14.4394 13.519 14.7029 13.6141 14.9754C13.9989 16.0167 14.1955 17.1 14.332 18.1954C14.4684 19.2892 14.5801 20.3872 14.7545 21.475C14.9064 22.4202 15.5747 22.7822 16.5051 22.4619C17.1009 22.2597 17.6056 21.8594 17.9314 21.3306C18.866 19.842 19.7339 18.3184 20.3487 16.6708C20.7227 15.6692 21.0987 14.6675 21.4545 13.6597C22.4207 10.9225 22.9103 8.11761 22.6462 5.21391C22.5736 4.41646 22.4473 3.61584 22.0082 2.92738C21.3222 1.85293 20.4127 1.1101 19.006 1.18309C18.2776 1.21059 17.5598 1.36314 16.8853 1.63376C16.0256 1.99078 15.1793 2.38072 14.3394 2.78109C13.572 3.14684 12.771 3.32784 11.9246 3.24225C11.2544 3.17442 10.5711 3.11957 9.92653 2.94323C8.6447 2.59236 7.37191 2.19874 6.12098 1.75404C4.85323 1.3033 3.74365 1.60718 2.67418 2.27323C2.11262 2.62431 1.70956 3.17254 1.54769 3.80546C1.31867 4.61869 1.21447 5.46075 1.23853 6.30402Z" fill="#3A3A3A"/>
<path d="M22.1722 6.31126C22.1258 6.81655 22.1055 7.3261 22.0224 7.82554C21.9767 8.09062 21.8688 8.34166 21.7069 8.55874C21.6412 8.6311 21.5608 8.68926 21.4709 8.7295C21.3811 8.76976 21.2836 8.79121 21.1847 8.79248C20.937 8.78435 20.8086 8.55347 20.795 8.3215C20.7828 8.03496 20.7913 7.74794 20.8204 7.46257C20.8551 7.05834 20.9151 6.6562 20.9549 6.25266C21.0708 5.07419 20.577 4.14868 19.7003 3.38653C19.5712 3.27426 19.4066 3.19036 19.308 3.05807C19.2049 2.93454 19.1492 2.77963 19.1504 2.62012C19.1814 2.40312 19.4087 2.33251 19.5978 2.37734C19.8487 2.42659 20.0873 2.52368 20.3 2.66307C21.5406 3.56872 22.2591 4.74045 22.1722 6.31126Z" fill="#3A3A3A"/>
<path d="M21.699 10.5078C21.7062 10.8237 21.667 11.1186 21.3264 11.2726C21.2255 11.324 21.1096 11.3407 20.9977 11.32C20.8858 11.2992 20.7844 11.2422 20.7095 11.1581C20.4665 10.9051 20.5019 10.6091 20.6279 10.3088C20.8027 9.89222 21.0026 9.71223 21.2675 9.74843C21.5658 9.78909 21.6903 10.0089 21.699 10.5078Z" fill="#3A3A3A"/>
</g>
<defs>
<clipPath id="clip0_395_4959">
<rect width="24" height="24" fill="white"/>
</clipPath>
</defs>
</svg>
