<svg width="24" height="24" viewBox="0 0 24 24" fill="none" xmlns="http://www.w3.org/2000/svg">
<g clip-path="url(#clip0_394_5823)">
<path d="M13.1083 0.0197754C15.6798 0.0782481 17.5727 1.2924 18.7301 3.76408C19.3461 5.07928 19.9148 6.42 20.5324 7.73433C20.7831 8.26408 21.0722 8.77199 21.3968 9.25336C21.8882 9.98569 21.5772 11.0555 20.7621 11.2508C20.2694 11.36 19.7711 11.4376 19.2697 11.483C18.1481 11.603 17.0247 11.7036 15.902 11.812C15.8678 11.8192 15.8329 11.8218 15.7982 11.8199C15.1329 11.7007 14.5575 11.9949 13.9531 12.2273C13.0314 12.5712 12.0491 12.6863 11.08 12.5637C9.90035 12.4343 8.79869 12.1056 7.78347 11.4387C7.63398 11.3405 7.42163 11.3454 7.23634 11.318C6.27227 11.1762 5.33872 11.4426 4.39367 11.5627C4.08263 11.5996 3.76955 11.6131 3.45675 11.6034C2.83407 11.589 2.39293 10.9043 2.74967 10.2943C3.58601 8.86422 4.06032 7.24999 4.76679 5.75424C5.59398 4.00279 6.75584 2.56935 8.30689 1.51509C9.37084 0.797177 10.5679 0.336785 11.8148 0.166047C12.2439 0.103538 12.6769 0.0677754 13.1083 0.0197754ZM7.19984 6.55628C6.9456 8.12926 7.90387 9.88585 9.34885 10.454C10.2487 10.805 11.2062 10.9538 12.162 10.8911C13.6858 10.8018 14.8149 9.98487 15.6256 8.63705C15.9158 8.14551 16.0691 7.57517 16.0671 6.99329C14.4177 6.4042 12.9395 5.63052 12.2296 3.68183C10.9608 5.59387 9.12686 6.1833 7.19984 6.55628Z" fill="#3A3A3A"/>
<path d="M14.901 23.8252C12.6573 23.8252 10.4135 23.8136 8.16987 23.829C6.36296 23.8414 4.55624 23.8961 2.74953 23.9104C2.28074 23.9081 1.81277 23.868 1.34959 23.7904C0.277317 23.6242 -0.153056 22.9438 0.202368 21.846C0.446194 21.1093 0.76489 20.4035 1.1527 19.7415C2.78531 16.9232 5.1595 15.0772 8.01133 13.9039C9.43815 13.3035 10.9478 12.961 12.4791 12.89C14.4398 12.8103 16.3245 13.0655 18.0729 14.0907C19.6266 15.0019 20.8806 16.2663 21.9228 17.7935C22.6687 18.8868 23.183 20.1109 23.7065 21.3289C23.8291 21.6581 23.9044 22.0054 23.9303 22.3588C24.0191 23.1253 23.6476 23.6262 22.9303 23.7063C22.3956 23.7661 21.8569 23.8122 21.3198 23.8154C19.1805 23.8275 17.0412 23.8203 14.9018 23.8203L14.901 23.8252ZM1.34075 22.2785C1.3951 22.3038 1.45078 22.3256 1.50752 22.3439C2.12786 22.4933 2.74699 22.4014 3.37231 22.3638C4.6378 22.2875 5.90655 22.2529 7.17428 22.2459C11.3658 22.2227 15.5574 22.2242 19.7489 22.204C20.5124 22.2004 21.2757 22.1402 22.039 22.1008C22.0975 22.0882 22.1537 22.065 22.2052 22.0325C22.2125 21.9631 22.2291 21.9218 22.2184 21.8914C21.5059 19.8514 20.4862 18.0282 18.9191 16.6062C18.0081 15.7796 17.0031 15.1135 15.8282 14.8087C14.0622 14.357 12.2239 14.34 10.4509 14.7589C7.24119 15.4898 4.56466 17.175 2.57226 20.0154C2.08311 20.7125 1.62692 21.4371 1.34075 22.2779V22.2785Z" fill="#3A3A3A"/>
</g>
<defs>
<clipPath id="clip0_394_5823">
<rect width="24" height="24" fill="white"/>
</clipPath>
</defs>
</svg>
