<svg width="24" height="24" viewBox="0 0 24 24" fill="none" xmlns="http://www.w3.org/2000/svg">
<g clip-path="url(#clip0_394_5827)">
<path d="M11.9072 12.3559C10.1818 12.2547 8.64456 11.9318 7.36229 10.7577C6.43005 9.90392 5.87754 8.79858 5.65046 7.50437C5.15368 4.67661 6.56774 2.22333 8.69214 1.0173C10.1719 0.177187 11.7304 -0.147715 13.3868 0.133922C14.8003 0.374146 15.8343 1.25151 16.6715 2.46345C16.955 2.87391 17.2878 3.26381 17.4851 3.72182C17.8924 4.66898 18.2387 5.6406 18.0037 6.74461C17.7838 7.77705 17.5114 8.77321 16.8987 9.617C15.8229 11.0985 14.4636 12.0394 12.7214 12.2486C12.4104 12.2858 12.101 12.3302 11.9072 12.3559ZM7.15972 6.90594C7.34654 8.43748 8.03593 9.5344 9.32501 10.101C9.84655 10.3111 10.389 10.4525 10.9409 10.5221C12.7234 10.7994 14.2534 10.2906 15.3869 8.67378C15.897 7.97905 16.1455 7.09629 16.0812 6.20679C14.6387 5.91265 13.3337 5.38076 12.2763 4.22273C10.9136 5.92617 9.10858 6.54907 7.1594 6.90594H7.15972Z" fill="#3A3A3A"/>
<path d="M14.895 23.8113C12.7208 23.8113 10.5466 23.799 8.37268 23.8149C6.4961 23.8286 4.62014 23.8878 2.74327 23.8969C2.22248 23.9007 1.70275 23.8444 1.19271 23.7287C0.23922 23.5085 -0.0683073 22.9166 0.171591 21.8758C0.362065 21.0498 0.751246 20.3241 1.16128 19.6146C2.82664 16.7288 5.21048 14.8399 8.08051 13.6295C9.63829 12.9584 11.2938 12.6023 12.9671 12.5783C15.391 12.5585 17.6419 13.2034 19.5751 14.925C20.9502 16.1327 22.0778 17.6449 22.8845 19.3632C23.1227 19.8725 23.3776 20.3762 23.5702 20.9063C23.7409 21.3633 23.863 21.8404 23.9342 22.3281C24.0367 23.0872 23.6625 23.5939 22.9753 23.6851C22.4932 23.754 22.0079 23.7922 21.5217 23.7998C19.3128 23.8118 17.1039 23.8051 14.895 23.8051V23.8113ZM22.2147 22.0028C22.2226 21.9024 22.2376 21.8605 22.2269 21.829C21.5175 19.7625 20.5119 17.9091 18.9635 16.4605C18.0554 15.6111 17.0533 14.9329 15.8833 14.5987C14.3263 14.169 12.704 14.1054 11.123 14.412C7.20308 15.1225 4.0716 17.216 1.93397 20.9592C1.70658 21.3575 1.52547 21.7878 1.31079 22.2277C2.02408 22.4548 2.6735 22.3643 3.3331 22.3204C4.61537 22.2353 5.902 22.2043 7.18732 22.1966C11.2222 22.1726 15.2574 22.1754 19.2923 22.1543C20.195 22.1496 21.0975 22.0905 22 22.0533C22.0727 22.0428 22.1445 22.0258 22.2147 22.0025V22.0028Z" fill="#3A3A3A"/>
</g>
<defs>
<clipPath id="clip0_394_5827">
<rect width="24" height="24" fill="white"/>
</clipPath>
</defs>
</svg>
